<?xml version="1.0" encoding="utf-8"?>
<!-- Generator: Adobe Illustrator 19.0.0, SVG Export Plug-In . SVG Version: 6.00 Build 0)  -->
<svg version="1.1" id="Calque_1" xmlns="http://www.w3.org/2000/svg" xmlns:xlink="http://www.w3.org/1999/xlink" x="0px" y="0px"
	 viewBox="0 0 99.2 99.2" style="enable-background:new 0 0 99.2 99.2;" xml:space="preserve">
<style type="text/css">
	.st0{fill:none;stroke:#000000;stroke-width:3;stroke-miterlimit:10;}
	.st1{fill:#FFFFFF;stroke:#000000;stroke-width:3;stroke-miterlimit:10;}
</style>
<path id="XMLID_7_" class="st0" d="M43.8,29.8c1.8,1.6,4.2,2.5,6.8,2.5c2.5,0,4.8-0.9,6.7-2.4c2.3-1.9,3.8-4.8,3.8-8.1
	c0-5.8-4.7-10.5-10.5-10.5S40.1,16,40.1,21.8C40.1,25,41.5,27.9,43.8,29.8z"/>
<path id="XMLID_6_" class="st0" d="M57.1,30.3c4.5,3.7,7.5,11,7.5,19.4c0,12.1-6.9,12.7-14.6,12.7s-13.3-0.6-13.3-12.7
	c0-8.4,3-15.7,7.4-19.4"/>
<path id="XMLID_5_" class="st1" d="M36.7,49.2c4.5,3.7,7.5,11,7.5,19.4c0,12.1-6.9,12.7-14.6,12.7s-13.3-0.6-13.3-12.7
	c0-8.4,3-15.7,7.4-19.4"/>
<path id="XMLID_1_" class="st1" d="M23.4,48.7c1.8,1.6,4.2,2.5,6.8,2.5c2.5,0,4.8-0.9,6.7-2.4c2.3-1.9,3.8-4.8,3.8-8.1
	c0-5.8-4.7-10.5-10.5-10.5S19.8,35,19.8,40.8C19.8,43.9,21.2,46.8,23.4,48.7z"/>
<path id="XMLID_3_" class="st1" d="M76.2,49.2c4.5,3.7,7.5,11,7.5,19.4c0,12.1-6.9,12.7-14.6,12.7s-13.3-0.6-13.3-12.7
	c0-8.4,3-15.7,7.4-19.4"/>
<path id="XMLID_4_" class="st1" d="M62.8,48.7c1.8,1.6,4.2,2.5,6.8,2.5c2.5,0,4.8-0.9,6.7-2.4c2.3-1.9,3.8-4.8,3.8-8.1
	c0-5.8-4.7-10.5-10.5-10.5s-10.5,4.7-10.5,10.5C59.2,43.9,60.6,46.8,62.8,48.7z"/>
</svg>
