<?xml version="1.0" encoding="utf-8"?>
<!-- Generator: Adobe Illustrator 19.0.0, SVG Export Plug-In . SVG Version: 6.00 Build 0)  -->
<svg version="1.1" id="Calque_1" xmlns="http://www.w3.org/2000/svg" xmlns:xlink="http://www.w3.org/1999/xlink" x="0px" y="0px"
	 viewBox="0 0 99.2 99.2" style="enable-background:new 0 0 99.2 99.2;" xml:space="preserve">
<style type="text/css">
	.st0{fill:none;stroke:#000000;stroke-width:3;stroke-linecap:round;stroke-linejoin:round;stroke-miterlimit:10;}
	.st1{fill:none;stroke:#000000;stroke-width:3;stroke-miterlimit:10;}
	.st2{fill:none;stroke:#000000;stroke-width:2;stroke-miterlimit:10;}
	.st3{fill:none;stroke:#000000;stroke-width:2;stroke-linecap:round;stroke-linejoin:round;stroke-miterlimit:10;}
</style>
<path class="st0" d="M46.5,80.8V34.5c4.7-3.9,21.1-6,24.8-2.1c0,13.4,0,44.8,0,44.8C65.8,76,52.9,74.8,46.5,80.8z"/>
<path class="st0" d="M46.7,80.8V34.5c-4.7-3.9-21.1-6-24.8-2.1c0,13.4,0,44.8,0,44.8C27.4,76,40.3,74.8,46.7,80.8z"/>
<path id="XMLID_3_" class="st1" d="M24.9,20.2"/>
<path id="XMLID_2_" class="st2" d="M23.5,20.5c1-4.2,6.3-6.5,12-5.2c5.7,1.4,9.5,5.9,8.5,10.1"/>
<polygon id="XMLID_4_" points="26.3,21.1 21.1,24.4 21.5,18.4 "/>
<path id="XMLID_5_" class="st2" d="M48.5,25.6c-1-4.2,3-8.8,8.8-10.2s11.3,0.9,12.3,5.1"/>
<polygon id="XMLID_1_" points="72.1,18.5 71.7,24.1 67.1,20.8 "/>
<path class="st3" d="M48.4,83.3"/>
</svg>
