<?xml version="1.0" encoding="utf-8"?>
<!-- Generator: Adobe Illustrator 19.0.0, SVG Export Plug-In . SVG Version: 6.00 Build 0)  -->
<svg version="1.1" id="Calque_1" xmlns="http://www.w3.org/2000/svg" xmlns:xlink="http://www.w3.org/1999/xlink" x="0px" y="0px"
	 viewBox="0 0 99.2 99.2" style="enable-background:new 0 0 99.2 99.2;" xml:space="preserve">
<style type="text/css">
	.st0{fill:none;stroke:#000000;stroke-width:3;stroke-miterlimit:10;}
</style>
<circle id="XMLID_3_" class="st0" cx="49.6" cy="50.1" r="35.6"/>
<path id="XMLID_4_" class="st0" d="M41.8,47.1c-2.6-2.2-4.2-5.5-4.2-9.1c0-6.7,5.4-12,12-12s12,5.4,12,12c0,3.7-1.7,7.1-4.4,9.3"/>
<path id="XMLID_1_" class="st0" d="M57.4,47.3C55.3,49,52.6,50,49.7,50c-3,0-5.8-1.1-7.9-2.9"/>
<path id="XMLID_5_" class="st0" d="M57.2,47.6c5.1,4.2,8.6,12.6,8.6,22.4c0,13.9-8,14.6-16.8,14.6S33.6,83.9,33.6,70
	c0-9.7,3.5-18.1,8.6-22.3"/>
</svg>
