<?xml version="1.0" encoding="utf-8"?>
<!-- Generator: Adobe Illustrator 19.0.0, SVG Export Plug-In . SVG Version: 6.00 Build 0)  -->
<svg version="1.1" id="Calque_1" xmlns="http://www.w3.org/2000/svg" xmlns:xlink="http://www.w3.org/1999/xlink" x="0px" y="0px"
	 viewBox="0 0 99.2 99.2" style="enable-background:new 0 0 99.2 99.2;" xml:space="preserve">
<style type="text/css">
	.st0{fill:none;stroke:#000000;stroke-width:3;stroke-miterlimit:10;}
</style>
<path id="XMLID_4_" class="st0" d="M39.7,39.3c-3.2-2.8-5.3-6.9-5.3-11.5c0-8.4,6.8-15.2,15.2-15.2s15.2,6.8,15.2,15.2
	c0,4.7-2.2,8.9-5.5,11.7"/>
<path id="XMLID_1_" class="st0" d="M59.3,39.5c-2.6,2.2-6,3.5-9.7,3.5c-3.8,0-7.3-1.4-9.9-3.7"/>
<path id="XMLID_5_" class="st0" d="M59,40c6.5,5.3,10.9,16,10.9,28.2c0,17.6-10.1,18.4-21.3,18.4s-19.4-0.8-19.4-18.4
	C29.2,56,33.6,45.4,40,40"/>
</svg>
