<?xml version="1.0" encoding="utf-8"?>
<!-- Generator: Adobe Illustrator 19.0.0, SVG Export Plug-In . SVG Version: 6.00 Build 0)  -->
<svg version="1.1" id="Calque_1" xmlns="http://www.w3.org/2000/svg" xmlns:xlink="http://www.w3.org/1999/xlink" x="0px" y="0px"
	 viewBox="0 0 99.2 99.2" style="enable-background:new 0 0 99.2 99.2;" xml:space="preserve">
<style type="text/css">
	.st0{fill:#FFFFFF;stroke:#000000;stroke-width:3;stroke-miterlimit:10;}
	.st1{fill:none;stroke:#000000;stroke-width:3;stroke-miterlimit:10;}
	.st2{fill:#FFFFFF;}
	.st3{fill:none;stroke:#000000;stroke-width:2;stroke-miterlimit:10;}
</style>
<path id="XMLID_5_" class="st0" d="M31.7,49.2c4.5,3.7,7.5,11,7.5,19.4c0,12.1-6.9,12.7-14.6,12.7s-13.3-0.6-13.3-12.7
	c0-8.4,3-15.7,7.4-19.4"/>
<path id="XMLID_1_" class="st0" d="M18.4,48.7c1.8,1.6,4.2,2.5,6.8,2.5c2.5,0,4.8-0.9,6.7-2.4c2.3-1.9,3.8-4.8,3.8-8.1
	c0-5.8-4.7-10.5-10.5-10.5S14.8,35,14.8,40.8C14.8,43.9,16.2,46.8,18.4,48.7z"/>
<path id="XMLID_3_" class="st0" d="M79.2,49.2c4.5,3.7,7.5,11,7.5,19.4c0,12.1-6.9,12.7-14.6,12.7s-13.3-0.6-13.3-12.7
	c0-8.4,3-15.7,7.4-19.4"/>
<path id="XMLID_4_" class="st0" d="M65.8,48.7c1.8,1.6,4.2,2.5,6.8,2.5c2.5,0,4.8-0.9,6.7-2.4c2.3-1.9,3.8-4.8,3.8-8.1
	c0-5.8-4.7-10.5-10.5-10.5s-10.5,4.7-10.5,10.5C62.2,43.9,63.6,46.8,65.8,48.7z"/>
<path id="XMLID_2_" class="st1" d="M52.1,29.1H41.9c-4.3,0-7.8-3.5-7.8-7.8l0,0c0-4.3,3.5-7.8,7.8-7.8h10.2c4.3,0,7.8,3.5,7.8,7.8
	l0,0C59.9,25.6,56.4,29.1,52.1,29.1z"/>
<polygon id="XMLID_7_" class="st2" points="50.1,27.2 58.2,33.5 54,24.6 "/>
<polyline id="XMLID_6_" class="st3" points="51,28.2 57.7,33.2 56.2,26.7 "/>
<path id="XMLID_8_" d="M50.6,27.6c0.3,0,1-0.1,1-0.1v0.9l-0.8,0.3L50.6,27.6z"/>
</svg>
