<?xml version="1.0" encoding="utf-8"?>
<!-- Generator: Adobe Illustrator 19.0.0, SVG Export Plug-In . SVG Version: 6.00 Build 0)  -->
<svg version="1.1" id="Calque_1" xmlns="http://www.w3.org/2000/svg" xmlns:xlink="http://www.w3.org/1999/xlink" x="0px" y="0px"
	 viewBox="-247 106.6 99.2 99.2" style="enable-background:new -247 106.6 99.2 99.2;" xml:space="preserve">
<style type="text/css">
	.st0{fill:none;stroke:#000000;stroke-width:3;stroke-linecap:round;stroke-linejoin:round;stroke-miterlimit:10;}
	.st1{fill:none;stroke:#000000;stroke-width:3;stroke-miterlimit:10;}
	.st2{fill:none;stroke:#000000;stroke-width:2;stroke-linecap:round;stroke-miterlimit:10;}
	.st3{fill:none;stroke:#000000;stroke-width:2;stroke-linecap:round;stroke-linejoin:round;stroke-miterlimit:10;}
</style>
<path class="st0" d="M-200.5,187.4v-46.3c4.7-3.9,21.1-6,24.8-2.1c0,13.4,0,44.8,0,44.8C-181.2,182.6-194.1,181.4-200.5,187.4z"/>
<path class="st0" d="M-200.3,187.4v-46.3c-4.7-3.9-21.1-6-24.8-2.1c0,13.4,0,44.8,0,44.8C-219.6,182.6-206.7,181.4-200.3,187.4z"/>
<path id="XMLID_3_" class="st1" d="M-222.1,126.8"/>
<path id="XMLID_2_" class="st2" d="M-223.5,127.1c1-4.2,6.3-6.5,12-5.2c5.7,1.4,9.5,5.9,8.5,10.1"/>
<polygon id="XMLID_4_" points="-220.7,127.7 -225.9,131 -225.5,125 "/>
<path id="XMLID_5_" class="st2" d="M-198.5,132.2c-1-4.2,3-8.8,8.8-10.2c5.8-1.4,11.3,0.9,12.3,5.1"/>
<polygon id="XMLID_1_" points="-174.9,125.1 -175.3,130.7 -179.9,127.4 "/>
<path class="st3" d="M-198.6,189.9"/>
</svg>
