<?xml version="1.0" encoding="utf-8"?>
<!-- Generator: Adobe Illustrator 19.0.0, SVG Export Plug-In . SVG Version: 6.00 Build 0)  -->
<svg version="1.1" id="Calque_1" xmlns="http://www.w3.org/2000/svg" xmlns:xlink="http://www.w3.org/1999/xlink" x="0px" y="0px"
	 viewBox="-247 106.6 99.2 99.2" style="enable-background:new -247 106.6 99.2 99.2;" xml:space="preserve">
<style type="text/css">
	.st0{fill:none;stroke:#000000;stroke-width:4;stroke-miterlimit:10;}
	.st1{fill:none;stroke:#000000;stroke-width:3;stroke-miterlimit:10;}
</style>
<circle id="XMLID_3_" class="st0" cx="-197.4" cy="156.7" r="35.6"/>
<path id="XMLID_4_" class="st1" d="M-205.2,153.7c-2.6-2.2-4.2-5.5-4.2-9.1c0-6.7,5.4-12,12-12c6.6,0,12,5.4,12,12
	c0,3.7-1.7,7.1-4.4,9.3"/>
<path id="XMLID_1_" class="st1" d="M-189.6,153.9c-2.1,1.7-4.8,2.7-7.7,2.7c-3,0-5.8-1.1-7.9-2.9"/>
<path id="XMLID_5_" class="st1" d="M-189.8,154.2c5.1,4.2,8.6,12.6,8.6,22.4c0,13.9-8,14.6-16.8,14.6c-8.8,0-15.4-0.7-15.4-14.6
	c0-9.7,3.5-18.1,8.6-22.3"/>
</svg>
