<?xml version="1.0" encoding="utf-8"?>
<!-- Generator: Adobe Illustrator 19.0.0, SVG Export Plug-In . SVG Version: 6.00 Build 0)  -->
<svg version="1.1" id="Calque_1" xmlns="http://www.w3.org/2000/svg" xmlns:xlink="http://www.w3.org/1999/xlink" x="0px" y="0px"
	 viewBox="-247 106.6 99.2 99.2" style="enable-background:new -247 106.6 99.2 99.2;" xml:space="preserve">
<style type="text/css">
	.st0{fill:none;stroke:#000000;stroke-width:5;stroke-linecap:round;stroke-miterlimit:10;}
	.st1{fill:none;stroke:#000000;stroke-width:3;stroke-miterlimit:10;}
</style>
<polygon id="XMLID_4_" points="-180.3,152.4 -197.2,171.3 -212.3,152 "/>
<line id="XMLID_1_" class="st0" x1="-196.4" y1="155.8" x2="-196.4" y2="119.5"/>
<path id="XMLID_2_" class="st1" d="M-217.6,166.4c-0.9-5.6,8.8-14.7,20.5-6.8c8.5-5.7,17.3-6.1,22.9,6.7c5.4-0.4,10,5.2,9.5,9
	c-0.5,3.8-2.1,8.9-10.7,9.8c-2.6,6.7-11.8,10.3-18.6,5.3c-7.3,4.3-11.7,2.4-16.3-1.6c-7.8,3.6-14.4-1.6-16.9-5.8
	C-229.7,178.9-227.9,167.8-217.6,166.4z"/>
</svg>
